<svg id="Layer_1" data-name="Layer 1" xmlns="http://www.w3.org/2000/svg" viewBox="0 0 557.37 117.41"><defs><style>.cls-1,.cls-2{fill:#0066b3;}.cls-1,.cls-4{fill-rule:evenodd;}.cls-3,.cls-4{fill:#da2228;}</style></defs><title>tribunkaltara_1</title><path class="cls-1" d="M107,0a4,4,0,0,0,.64.17.8.8,0,0,1,.64.86C106.67,17.72,96.1,26,77,24.74v76c13.67-3.2,22.34-11.92,28.82-22.52a.78.78,0,0,1,1-.32l.38.15a.79.79,0,0,1,.46.93c-4.32,17.39-13.84,30.63-30.15,36-8.24,2.73-20,3.25-29.77,1.21a53.09,53.09,0,0,1-22.8-10.66C15.69,98.07,9.09,87.58,8,72.09A52.74,52.74,0,0,1,9.21,56.81,55.4,55.4,0,0,1,20.38,34.43,89.77,89.77,0,0,1,37.77,18.37c-8-1.64-17-1-22.91,2.06A33.13,33.13,0,0,0,2.79,31.83c-.39.57-1,1.77-1.45,1.87s-.92-.07-1.34,0C1.66,22.33,6.36,14,14,8.47,21.5,3.07,32.35.1,45.48,1,60.43,2,72.93,6.48,87,8.54a30.54,30.54,0,0,0,9,.3c5.68-.86,8.39-4.45,10.91-8.66C106.89.12,106.88,0,107,0ZM25.4,53.48C24,70.92,30.06,82.81,39,90.53a15.92,15.92,0,0,0,4.12-5.41,21.06,21.06,0,0,0,1.29-8.3V19.39a14.31,14.31,0,0,1-2.07-.3C33.89,27.37,26.68,37.91,25.4,53.48Zm36.51-31V44.86c0,7.56.45,15.16-.73,21.78C58.9,79.43,50.74,86.21,42.81,93.25c6.66,5.87,17.06,9.16,30,8.19v-77C69.19,23.77,65.64,23,62,22.31,62,22.21,61.88,22.32,61.91,22.43Z"/><path class="cls-1" d="M123.94,5c3.31,0,5.27,1.48,6.24,4.05,1.9,5,.66,13-3.51,14.8a7.32,7.32,0,0,1-8.37-2.24,11.7,11.7,0,0,1-1.64-6.55C116.68,9.5,118.14,5.05,123.94,5Z"/><path class="cls-1" d="M150.37,31.74a.79.79,0,0,0,1.47.4,10,10,0,0,1,3.45-3.71c2.2-1.26,5.3-.52,6.85.68a13,13,0,0,1,3.7,5.13c3.48,7.82,4.22,21.1,1.88,31-1.11,4.7-3.38,9.14-6.79,10.85A7.08,7.08,0,0,1,153.16,75a9.63,9.63,0,0,1-1.89-2.78.79.79,0,0,0-1.5.33c0,1.12,0,2.23,0,3.33a.8.8,0,0,1-.89.78,120.47,120.47,0,0,0-13.25-1.29.8.8,0,0,1-.79-.79v-.66a.79.79,0,0,1,.79-.79h1.22a.8.8,0,0,0,.79-.79c.13-20.49,0-41.21,0-61.79a.79.79,0,0,0-.79-.79h-1.27a.79.79,0,0,1-.79-.79V8.32a.78.78,0,0,1,.76-.78,112.36,112.36,0,0,0,14.28-1.48c.52-.1.45,0,.48.6.27,4.5,0,9.13,0,13.58Zm.07,10.34c-.14,3.11-.07,6.68-.07,10.61,0,3.47-.05,7.11.07,10.55A25.4,25.4,0,0,0,151,68c.31,1.34,1,3.09,2.36,3,1.18-.11,1.5-2,1.7-3.45.63-4.74.3-10.39.3-15.29V41.9A31.16,31.16,0,0,0,155.1,37c-.26-1.81-.65-3.44-2.12-3.16C150.62,34.29,150.56,39.35,150.44,42.08Z"/><path class="cls-1" d="M97.14,28.74v5a.79.79,0,0,0,1.5.34c1.52-3.32,3.65-6.3,8.14-5.81a5.09,5.09,0,0,1,2.73,1.29c4,3.8,4.49,15.65.48,19.63a4.5,4.5,0,0,1-3.46,1.33,5.84,5.84,0,0,1-3.88-2.3c-1.55-2-2.2-5.38-2.18-8.49,0-.85.21-1.92.31-2.84s.39-2-.43-2.44c-1.11.66-1.39,2.16-1.7,3.47-1,4.06-.9,9.33-.9,14.54V72.33a.8.8,0,0,0,.76.79c.73,0,1.51,0,2.26,0a.79.79,0,0,1,.8.79v.66a.79.79,0,0,1-.79.79h-19V73.13h1.89a.79.79,0,0,0,.79-.78c.12-13.27,0-26.75,0-40.1a.79.79,0,0,0-.79-.79H81.8V29c4.82-.37,9.62-.76,14.49-1.09A.79.79,0,0,1,97.14,28.74Z"/><path class="cls-1" d="M130.44,28.73c.26,14.31,0,29.09.1,43.61a.81.81,0,0,0,.76.79c.46,0,.95,0,1.42,0a.79.79,0,0,1,.8.79v.66a.79.79,0,0,1-.79.79H115.39a.79.79,0,0,1-.79-.79v-.65a.79.79,0,0,1,.79-.79h1.09a.8.8,0,0,0,.8-.78c.12-13.24,0-26.71,0-40a.79.79,0,0,0-.79-.79h-1.15a.79.79,0,0,1-.79-.79v-.92a.8.8,0,0,1,.78-.79c5-.08,9.52-.66,14.2-1.07A.8.8,0,0,1,130.44,28.73Z"/><path class="cls-1" d="M191.12,31.53h-1.33a.8.8,0,0,1-.79-.79v-.93a.79.79,0,0,1,.78-.78c4.9-.13,9.19-.86,14.12-1a.81.81,0,0,1,.81.8V72.34a.79.79,0,0,0,.79.79H207a.79.79,0,0,1,.79.79v.67a.79.79,0,0,1-.78.78,105.89,105.89,0,0,0-13.63,1.32.79.79,0,0,1-.91-.75c0-1.61,0-3.28,0-4.94a.79.79,0,0,0-1.48-.38c-1.66,3.08-3.73,5.77-7.74,6.13-6.08.55-7.81-4.26-8.73-9.4s-.73-11.36-.73-17.57V32.32a.79.79,0,0,0-.79-.79h-1.08a.79.79,0,0,1-.79-.79V29.8a.79.79,0,0,1,.76-.79c4.74-.17,10-.45,14.33-1.06.39-.05.55-.32.61.41.26,3.15,0,7.19,0,10.14V65.67c0,2.16-.1,5,2.36,4.49,2.07-.43,2.59-5.24,2.73-7.65.22-3.72.06-7.32.06-10.32V32.32A.79.79,0,0,0,191.12,31.53Z"/><path class="cls-1" d="M244.18,73.13h1.34a.79.79,0,0,1,.79.79v.65a.79.79,0,0,1-.79.79h-16a.79.79,0,0,1-.79-.79v-.65a.79.79,0,0,1,.79-.79h.19a.79.79,0,0,0,.79-.78c.09-9.26.06-19.45,0-29.13,0-1.46,0-3.3-.11-4.84s-.42-3.47-1.7-3.58c-1.52-.14-2.14,1.55-2.48,2.73-1.2,4-.85,9.69-.85,14.79v20a.79.79,0,0,0,.79.79h.35a.79.79,0,0,1,.79.79v.65a.79.79,0,0,1-.79.79H210.53a.79.79,0,0,1-.79-.79v-.65a.79.79,0,0,1,.79-.79h1.09a.79.79,0,0,0,.79-.79v-40a.79.79,0,0,0-.79-.79h-1.09a.79.79,0,0,1-.79-.79v-.93a.79.79,0,0,1,.77-.79c4.88-.15,9.18-.87,14.13-.94a.8.8,0,0,1,.81.8v4.43a.78.78,0,0,0,1.49.35c1.43-2.77,3.34-5.14,6.69-5.71a7.45,7.45,0,0,1,5.27,1c2.28,1.47,3.39,4.86,3.95,8.25a74.09,74.09,0,0,1,.54,11.57c0,8.21,0,16.28,0,23.55A.78.78,0,0,0,244.18,73.13Z"/><path class="cls-2" d="M253.42,10.21h-4V7.64h24.73v2.57h-4.58V42l12.34-22.93c1.21-2.26,1.77-3.86,1.7-4.8l-.1-1.16q-.64-2.91-5.85-2.91V7.64h16.64v2.57L292.08,10a4,4,0,0,0-2.92,1.16,20.5,20.5,0,0,0-3.41,5.09l-4.09,8.05,15,48.18h2.39v2.56H275.12V72.5h3.63L269.53,42V72.5h3.62v2.56H249.38V72.5h4Z"/><path class="cls-2" d="M330.64,40.6V67.12c0,1.51.33,2.37,1,2.56.7-.19,1.38-1.11,2-2.76v3.35q-2.67,6.2-8.56,6.2a5.39,5.39,0,0,1-3.86-1.62,10.67,10.67,0,0,1-2.58-5q-3.51,6.78-9.68,6.78t-7.92-6.49a20.52,20.52,0,0,1-.91-5.53q0-9.73,5.75-13.42,3.55-2.28,10.31-2.28h2V36.82c0-2.23,0-3.58-.05-4.07a2.75,2.75,0,0,0-3.09-2.38c-1.06,0-1.7.41-1.91,1.22.11.19.46.89,1.06,2.08a5.1,5.1,0,0,1,.64,2.08l.21,2.67c.22,2.72-.58,4.7-2.39,6a29.51,29.51,0,0,1-4.25,1.6,5.61,5.61,0,0,1-4.36-1.74,6.14,6.14,0,0,1-1.6-4.32L302.24,38q0-10.22,14.46-10.22a39.66,39.66,0,0,1,6.17.84,18.49,18.49,0,0,1,4,1.92Q330.63,33.48,330.64,40.6Zm-12.45,22V51.31h-2c-1.74,0-2.6,2.52-2.6,7.57V64q0,6.49,1.8,6.89l.59-.2Q318.2,70.7,318.19,62.56Z"/><path class="cls-2" d="M338.35,72.79v-63h-3V7.64a63.06,63.06,0,0,0,8.13-.58l7.77-1V72.79H354v2.27H335.32V72.79Z"/><path class="cls-2" d="M355.2,31.39V29q9.36,0,15.05-17.21h1.07V29h6v2.37h-6V65.71q0,5,1.43,5H373q3.82-.83,3.82-11.82H378q0,7.93-2.28,12.23A9.45,9.45,0,0,1,369,76.28a8.22,8.22,0,0,1-1.59.19h-1.33q-4,0-5.43-2.23a10.84,10.84,0,0,1-1.75-5.14,53.19,53.19,0,0,1-.59-7.75v-30Z"/><path class="cls-2" d="M410,40.6V67.12c0,1.51.33,2.37,1,2.56.71-.19,1.38-1.11,2-2.76v3.35q-2.65,6.2-8.56,6.2a5.39,5.39,0,0,1-3.86-1.62,10.76,10.76,0,0,1-2.58-5q-3.51,6.78-9.68,6.78t-7.92-6.49a20.47,20.47,0,0,1-.9-5.53q0-9.73,5.74-13.42,3.56-2.28,10.32-2.28h2V36.82c0-2.23,0-3.58,0-4.07a2.74,2.74,0,0,0-3.08-2.38c-1.07,0-1.71.41-1.92,1.22.11.19.46.89,1.07,2.08a5.07,5.07,0,0,1,.63,2.08l.22,2.67c.21,2.72-.59,4.7-2.4,6a29,29,0,0,1-4.25,1.6,5.62,5.62,0,0,1-4.36-1.74,6.19,6.19,0,0,1-1.6-4.32L381.58,38q0-10.22,14.46-10.22a39.66,39.66,0,0,1,6.17.84,18.49,18.49,0,0,1,4,1.92Q410,33.48,410,40.6Zm-12.45,22V51.31h-2q-2.6,0-2.6,7.57V64q0,6.49,1.81,6.89l.58-.2Q397.54,70.7,397.53,62.56Z"/><path class="cls-2" d="M417.37,31.39h-2.71V29l15.21-1.16v9.84q3-9.46,8.29-9.46h.64c2.41,0,4.18,1.59,5.32,4.75a21,21,0,0,1,1.22,7.37,15.8,15.8,0,0,1-1.22,6.25q-1.71,3.78-4.9,3.78-6.06-1.06-6.06-11.05l.43-4.36a3.7,3.7,0,0,0-.32-.39l-.21-.19q-1.17,0-2.18,5.86a52.63,52.63,0,0,0-.43,8.15V72.79h3.78v2.27H414.66V72.79h2.71Z"/><path class="cls-2" d="M477.67,40.6V67.12c0,1.51.34,2.37,1,2.56.71-.19,1.39-1.11,2-2.76v3.35q-2.65,6.2-8.56,6.2a5.37,5.37,0,0,1-3.85-1.62,10.67,10.67,0,0,1-2.58-5q-3.51,6.78-9.68,6.78t-7.92-6.49a20.14,20.14,0,0,1-.91-5.53q0-9.73,5.75-13.42,3.56-2.28,10.31-2.28h2V36.82c0-2.23,0-3.58-.05-4.07a2.75,2.75,0,0,0-3.09-2.38c-1.06,0-1.7.41-1.91,1.22.1.19.46.89,1.06,2.08a5.25,5.25,0,0,1,.64,2.08l.21,2.67c.21,2.72-.58,4.7-2.39,6a29.35,29.35,0,0,1-4.26,1.6,5.64,5.64,0,0,1-4.36-1.74,6.18,6.18,0,0,1-1.59-4.32L449.28,38q0-10.22,14.46-10.22a39.66,39.66,0,0,1,6.17.84,18.71,18.71,0,0,1,4,1.92Q477.67,33.48,477.67,40.6Zm-12.44,22V51.31h-2q-2.61,0-2.61,7.57V64q0,6.49,1.81,6.89l.59-.2C464.48,70.7,465.23,68,465.23,62.56Z"/><path class="cls-3" d="M504.41,76.21a7.73,7.73,0,0,1-3.64-.87,7.89,7.89,0,0,1-2.85-2.63,13.56,13.56,0,0,1-1.84-4.44,26.46,26.46,0,0,1-.66-6.29,24.66,24.66,0,0,1,.69-6.22,15.54,15.54,0,0,1,1.81-4.4,8.19,8.19,0,0,1,2.84-2.75,7.23,7.23,0,0,1,3.65-1,7.61,7.61,0,0,1,3.07.64,13.66,13.66,0,0,1,2.28,1.23.78.78,0,0,1,.35.66v4.74h-.19c-.23-.28-.53-.6-.89-1a11.28,11.28,0,0,0-1.32-1.1,7.44,7.44,0,0,0-1.59-.85,4.64,4.64,0,0,0-1.76-.37,4.57,4.57,0,0,0-4.05,2.7A15.82,15.82,0,0,0,498.79,62a16,16,0,0,0,1.47,7.54,4.54,4.54,0,0,0,4.1,2.71,5.44,5.44,0,0,0,3-.93,9.94,9.94,0,0,0,2.54-2.4h.19v4.73a.8.8,0,0,1-.37.67l-.84.53a7.09,7.09,0,0,1-1.31.67,12.44,12.44,0,0,1-1.49.53A6.51,6.51,0,0,1,504.41,76.21Z"/><path class="cls-3" d="M528.92,62q0,6.9-2.35,10.65A7.08,7.08,0,0,1,514,72.48q-2.31-3.87-2.31-10.53,0-6.84,2.38-10.64t6.25-3.79a7.11,7.11,0,0,1,6.25,3.78Q528.91,55.08,528.92,62Zm-3.35,0q0-5.31-1.37-7.89a4.22,4.22,0,0,0-3.88-2.58,4.27,4.27,0,0,0-3.91,2.58Q515,56.64,515,62c0,3.43.46,6,1.37,7.79a4.2,4.2,0,0,0,7.79.05C525.11,68.06,525.57,65.44,525.57,62Z"/><path class="cls-3" d="M554.92,75.6a.79.79,0,0,1-.79-.79v-15c0-1.26,0-2.42-.11-3.49a9.31,9.31,0,0,0-.43-2.5,2.94,2.94,0,0,0-1-1.45,2.89,2.89,0,0,0-1.73-.46,3.67,3.67,0,0,0-2.15.87,12.83,12.83,0,0,0-2.37,2.5c0,.28,0,.61,0,1s0,.84,0,1.36V74.81a.79.79,0,0,1-.79.79H544a.79.79,0,0,1-.79-.79v-15c0-1.26,0-2.42-.11-3.49a9.31,9.31,0,0,0-.43-2.5,2.94,2.94,0,0,0-1-1.45,2.89,2.89,0,0,0-1.73-.46,3.59,3.59,0,0,0-2.21.93A12.55,12.55,0,0,0,535.66,55a.82.82,0,0,0-.17.5V74.81a.79.79,0,0,1-.79.79H533a.79.79,0,0,1-.79-.79V49.07a.79.79,0,0,1,.79-.79h1.66a.79.79,0,0,1,.79.79h0a.79.79,0,0,0,1.38.52A9.49,9.49,0,0,1,538,48.51a4.32,4.32,0,0,1,2.75-1,4.62,4.62,0,0,1,3,1.1,5.72,5.72,0,0,1,1.52,2.2.79.79,0,0,0,1.36.13,13.26,13.26,0,0,1,2-2.23,4.63,4.63,0,0,1,5.3-.65,4.93,4.93,0,0,1,1.78,1.77A10,10,0,0,1,557,53a21.72,21.72,0,0,1,.42,4.67V74.81a.79.79,0,0,1-.79.79Z"/><path class="cls-4" d="M488,65.59c5.52-1,6,9.14,1.57,10.3-2.8.74-4.58-2-4.81-4.29a6.5,6.5,0,0,1,1.58-5.2A3.21,3.21,0,0,1,488,65.59Z"/></svg>